# xmcd
#
# Track frame offsets:
#	150
#	11610
#	22309
#	35216
#	46315
#	56670
#	67597
#	79359
#	90588
#	101460
#
# Disc length: 1506 seconds
#
# Revision: 0
# Processed by: cddbd v1.5.2PL0 Copyright (c) Steve Scherf et al.
# Submitted via: EasyCDDAExtractor 16.0.1.1
#
DISCID=7d05e00a
DTITLE=Wanda Jackson - Nobody's Darlin'
DYEAR=1969
DGENRE=Country
TTITLE0=Lovin'Country Style
TTITLE1=Wasted
TTITLE2=Nobody's Darlin' But Mine
TTITLE3=You Won't Forget (About Me)
TTITLE4=I'd Rather Have A Broken Heart
TTITLE5=Tears At The Grand Ole Opry
TTITLE6=I Cried Again
TTITLE7=It's The Same World (Wherever You Go)
TTITLE8=The Heart You Could Have Had
TTITLE9=The Right To Love
EXTD=
EXTT0=
EXTT1=
EXTT2=
EXTT3=
EXTT4=
EXTT5=
EXTT6=
EXTT7=
EXTT8=
EXTT9=
PLAYORDER=
